<?xml version="1.0" encoding="UTF-8" standalone="no"?>
<!DOCTYPE svg PUBLIC "-//W3C//DTD SVG 1.1//EN" "http://www.w3.org/Graphics/SVG/1.1/DTD/svg11.dtd">
<svg width="100%" height="100%" viewBox="0 0 68 118" version="1.1" xmlns="http://www.w3.org/2000/svg" xmlns:xlink="http://www.w3.org/1999/xlink" xml:space="preserve" xmlns:serif="http://www.serif.com/" style="fill-rule:evenodd;clip-rule:evenodd;stroke-linejoin:round;stroke-miterlimit:2;">
    <g transform="matrix(1,0,0,1,-49993.8,-19633)">
        <g transform="matrix(1,0,0,1,49910.3,19587.6)">
            <g transform="matrix(1.04472,0,0,1.04472,-50829.3,-17413.5)">
                <path d="M48733.6,16767.8C48733.5,16765.9 48734.2,16764 48735.6,16762.5C48736.2,16761.9 48736.9,16761.4 48737.6,16761.1L48785.5,16713.7C48788.4,16710.9 48792.9,16710.9 48795.7,16713.7C48798.5,16716.5 48798.5,16721.1 48795.6,16723.9L48751.2,16767.8L48795.6,16811.8C48798.5,16814.6 48798.5,16819.1 48795.7,16822C48792.9,16824.8 48788.4,16824.8 48785.5,16822L48737.6,16774.6C48736.9,16774.2 48736.2,16773.8 48735.6,16773.2C48734.2,16771.7 48733.5,16769.8 48733.6,16767.8Z" style="fill:white;"/>
            </g>
        </g>
    </g>
</svg>
