<?xml version="1.0" encoding="UTF-8" standalone="no"?>
<!DOCTYPE svg PUBLIC "-//W3C//DTD SVG 1.1//EN" "http://www.w3.org/Graphics/SVG/1.1/DTD/svg11.dtd">
<svg width="100%" height="100%" viewBox="0 0 425 240" version="1.1" xmlns="http://www.w3.org/2000/svg" xmlns:xlink="http://www.w3.org/1999/xlink" xml:space="preserve" xmlns:serif="http://www.serif.com/" style="fill-rule:evenodd;clip-rule:evenodd;stroke-linejoin:round;stroke-miterlimit:2;">
    <g transform="matrix(1,0,0,1,-49125.4,-18333.2)">
        <g transform="matrix(1,0,0,1,48506.2,16858.4)">
            <g transform="matrix(1.03458,0,0,1.48708,-50219.6,-29374.3)">
                <g transform="matrix(1.4072,0,0,0.979007,13246.5,3031.8)">
                    <path d="M25551.8,18092.8L25608.3,18092.8L25563.3,18257.6L25506.7,18257.6L25551.8,18092.8ZM25632.8,18092.8L25774.8,18092.8C25787.9,18092.8 25798.6,18103.5 25798.6,18116.6L25798.6,18233.8C25798.6,18247 25787.9,18257.6 25774.8,18257.6L25587.7,18257.6L25632.8,18092.8Z" style="fill:rgb(254,0,93);fill-opacity:0.5;"/>
                </g>
                <g transform="matrix(1.4072,0,0,0.979007,13246.5,3031.8)">
                    <path d="M25551.8,18092.8L25608.3,18092.8L25563.3,18257.6L25506.7,18257.6L25551.8,18092.8ZM25632.8,18092.8L25774.8,18092.8C25787.9,18092.8 25798.6,18103.5 25798.6,18116.6L25798.6,18233.8C25798.6,18247 25787.9,18257.6 25774.8,18257.6L25587.7,18257.6L25632.8,18092.8Z" style="fill:rgb(254,0,93);fill-opacity:0.5;"/>
                </g>
            </g>
        </g>
        <g transform="matrix(1,0,0,1,48506.2,16858.4)">
            <g transform="matrix(3.01489e-17,0.49237,-0.49237,3.01489e-17,10795.7,-23054.6)">
                <path d="M50159.8,20194.4C50158.4,20195 50156.8,20195.3 50155.2,20195.3C50153.5,20195.3 50152,20195 50150.6,20194.4C50149.2,20193.8 50147.9,20193 50146.8,20192C50146.7,20191.8 50146.6,20191.7 50146.5,20191.6L50098.7,20142C50094.1,20137.3 50094.2,20129.7 50099,20125.1C50103.8,20120.5 50111.4,20120.6 50116,20125.4L50143.2,20153.6L50143.2,20028.2C50143.2,20022.4 50140.9,20016.8 50136.7,20012.6C50132.6,20008.5 50127,20006.2 50121.2,20006.2L50044.8,20006.2C50038.1,20006.2 50032.8,20000.8 50032.8,19994.2C50032.8,19987.6 50038.1,19982.2 50044.8,19982.2L50121.2,19982.2C50133.4,19982.2 50145.1,19987.1 50153.7,19995.7C50162.3,20004.3 50167.2,20016 50167.2,20028.2L50167.2,20153.6L50194.4,20125.4C50199,20120.6 50206.6,20120.5 50211.3,20125.1C50216.1,20129.7 50216.2,20137.3 50211.6,20142L50163.8,20191.6C50163.7,20191.7 50163.6,20191.8 50163.5,20192C50162.4,20193 50161.1,20193.8 50159.8,20194.4ZM49982.2,20023.9L49982.2,20149.3C49982.2,20155.2 49984.5,20160.8 49988.6,20164.9C49992.7,20169 49998.3,20171.3 50004.1,20171.3L50080.6,20171.3C50087.2,20171.3 50092.6,20176.7 50092.6,20183.3C50092.6,20189.9 50087.2,20195.3 50080.6,20195.3L50004.1,20195.3C49992,20195.3 49980.3,20190.5 49971.6,20181.8C49963,20173.2 49958.2,20161.5 49958.2,20149.3L49958.2,20023.9L49931,20052.1C49926.4,20056.9 49918.8,20057 49914,20052.4C49909.2,20047.9 49909.1,20040.2 49913.7,20035.5L49961.5,19985.9C49961.6,19985.8 49961.7,19985.7 49961.8,19985.6C49963,19984.5 49964.2,19983.7 49965.6,19983.1C49967,19982.5 49968.5,19982.2 49970.2,19982.2C49971.8,19982.2 49973.4,19982.5 49974.8,19983.1C49976.1,19983.7 49977.4,19984.5 49978.5,19985.6C49978.6,19985.7 49978.7,19985.8 49978.8,19985.9L50026.6,20035.5C50031.2,20040.2 50031.1,20047.9 50026.3,20052.4C50021.6,20057 50014,20056.9 50009.4,20052.1L49982.2,20023.9Z" style="fill:white;"/>
            </g>
        </g>
    </g>
</svg>
