<?xml version="1.0" encoding="UTF-8" standalone="no"?>
<!DOCTYPE svg PUBLIC "-//W3C//DTD SVG 1.1//EN" "http://www.w3.org/Graphics/SVG/1.1/DTD/svg11.dtd">
<svg width="100%" height="100%" viewBox="0 0 68 68" version="1.1" xmlns="http://www.w3.org/2000/svg" xmlns:xlink="http://www.w3.org/1999/xlink" xml:space="preserve" xmlns:serif="http://www.serif.com/" style="fill-rule:evenodd;clip-rule:evenodd;stroke-linejoin:round;stroke-miterlimit:2;">
    <g transform="matrix(1,0,0,1,-48938.4,-7652.87)">
        <g transform="matrix(1,0,0,1,47904.3,7585.86)">
            <g transform="matrix(1,0,0,1,-49684.2,-7590.34)">
                <path d="M50751.8,7657.35C50770.4,7657.35 50785.4,7672.39 50785.4,7690.91C50785.4,7709.43 50770.4,7724.47 50751.8,7724.47C50733.3,7724.47 50718.3,7709.43 50718.3,7690.91C50718.3,7672.39 50733.3,7657.35 50751.8,7657.35ZM50750.5,7711.31L50752.9,7711.31L50752.9,7709.64L50753.6,7709.64C50755.7,7709.64 50757.7,7709.22 50759.5,7708.37C50761.2,7707.53 50762.7,7706.38 50763.7,7704.92C50764.7,7703.47 50765.2,7701.88 50765.2,7700.15L50765.2,7698.27C50765.2,7696.72 50764.8,7695.22 50763.9,7693.77C50762.9,7692.31 50761.7,7691.11 50760,7690.18C50758.4,7689.24 50756.7,7688.78 50754.7,7688.78L50752.9,7688.78L50752.9,7673.63L50753.6,7673.63C50755.3,7673.63 50756.8,7673.96 50758.3,7674.63C50759.7,7675.29 50760.8,7676.21 50761.7,7677.38C50762.5,7678.55 50762.9,7679.81 50762.9,7681.18L50765.2,7681.18C50765.2,7679.63 50764.8,7678.12 50763.9,7676.65C50762.9,7675.18 50761.7,7673.98 50760,7673.06C50758.4,7672.15 50756.7,7671.71 50754.7,7671.74L50752.9,7671.74L50752.9,7670.5L50750.5,7670.5L50750.5,7671.8L50749,7671.8C50747,7671.83 50745.2,7672.29 50743.6,7673.17C50742,7674.05 50740.7,7675.21 50739.8,7676.65C50738.9,7678.09 50738.4,7679.6 50738.4,7681.18C50738.4,7682.83 50738.9,7684.39 50739.8,7685.84C50740.7,7687.3 50741.9,7688.46 50743.6,7689.34C50745.2,7690.23 50747,7690.66 50749,7690.66L50750.5,7690.66L50750.5,7707.75L50750.1,7707.75C50748.4,7707.75 50746.8,7707.41 50745.4,7706.73C50744,7706.05 50742.8,7705.12 50742,7703.95C50741.2,7702.79 50740.7,7701.52 50740.7,7700.15L50738.4,7700.15C50738.4,7701.88 50738.9,7703.47 50740,7704.92C50741,7706.38 50742.4,7707.53 50744.2,7708.37C50746,7709.22 50748,7709.64 50750.1,7709.64L50750.5,7709.64L50750.5,7711.31ZM50753.6,7707.75L50752.9,7707.75L50752.9,7690.66L50753.6,7690.66C50755.3,7690.66 50756.9,7691 50758.3,7691.66C50759.8,7692.33 50760.9,7693.24 50761.7,7694.41C50762.5,7695.58 50762.9,7696.86 50762.9,7698.27L50762.9,7700.15C50762.9,7701.52 50762.5,7702.79 50761.7,7703.95C50760.8,7705.12 50759.7,7706.05 50758.3,7706.73C50756.8,7707.41 50755.3,7707.75 50753.6,7707.75ZM50750.5,7688.78L50750.1,7688.78C50748.4,7688.78 50746.8,7688.45 50745.3,7687.78C50743.9,7687.12 50742.8,7686.2 50742,7685.03C50741.1,7683.86 50740.7,7682.58 50740.7,7681.18C50740.7,7679.81 50741.2,7678.55 50742,7677.38C50742.8,7676.21 50744,7675.29 50745.4,7674.63C50746.8,7673.96 50748.4,7673.63 50750.1,7673.63L50750.5,7673.63L50750.5,7688.78Z" style="fill:white;"/>
            </g>
        </g>
    </g>
</svg>
