<?xml version="1.0" encoding="UTF-8" standalone="no"?>
<!DOCTYPE svg PUBLIC "-//W3C//DTD SVG 1.1//EN" "http://www.w3.org/Graphics/SVG/1.1/DTD/svg11.dtd">
<svg width="100%" height="100%" viewBox="0 0 61 61" version="1.1" xmlns="http://www.w3.org/2000/svg" xmlns:xlink="http://www.w3.org/1999/xlink" xml:space="preserve" xmlns:serif="http://www.serif.com/" style="fill-rule:evenodd;clip-rule:evenodd;stroke-linejoin:round;stroke-miterlimit:2;">
    <g transform="matrix(1,0,0,1,-39584.8,-6609.75)">
        <g transform="matrix(1,0,0,1,38559.6,4491.81)">
            <g transform="matrix(0.380381,0,0,0.380381,-13972.9,-313.892)">
                <path d="M39508.7,6393.16C39552.8,6393.16 39588.6,6428.95 39588.6,6473.02C39588.6,6517.1 39552.8,6552.88 39508.7,6552.88C39464.7,6552.88 39428.9,6517.1 39428.9,6473.02C39428.9,6428.95 39464.7,6393.16 39508.7,6393.16ZM39454,6473.02L39454,6473.03C39454,6474.43 39454.6,6475.78 39455.6,6476.77C39456.6,6477.76 39457.9,6478.32 39459.3,6478.32L39503.5,6478.32L39503.5,6522.47C39503.5,6523.87 39504,6525.22 39505,6526.21C39506,6527.21 39507.3,6527.76 39508.7,6527.76L39508.7,6527.76C39510.2,6527.76 39511.5,6527.21 39512.5,6526.21C39513.5,6525.22 39514,6523.87 39514,6522.47L39514,6478.32L39558.2,6478.32C39559.6,6478.32 39560.9,6477.76 39561.9,6476.77C39562.9,6475.78 39563.5,6474.43 39563.5,6473.03L39563.5,6473.02C39563.5,6471.62 39562.9,6470.27 39561.9,6469.28C39560.9,6468.28 39559.6,6467.73 39558.2,6467.73L39514,6467.73L39514,6423.58C39514,6422.18 39513.5,6420.83 39512.5,6419.84C39511.5,6418.84 39510.2,6418.28 39508.7,6418.28L39508.7,6418.28C39507.3,6418.28 39506,6418.84 39505,6419.84C39504,6420.83 39503.5,6422.18 39503.5,6423.58L39503.5,6467.73L39459.3,6467.73C39457.9,6467.73 39456.6,6468.28 39455.6,6469.28C39454.6,6470.27 39454,6471.62 39454,6473.02Z" style="fill:white;"/>
            </g>
        </g>
    </g>
</svg>
