<?xml version="1.0" encoding="UTF-8" standalone="no"?>
<!DOCTYPE svg PUBLIC "-//W3C//DTD SVG 1.1//EN" "http://www.w3.org/Graphics/SVG/1.1/DTD/svg11.dtd">
<svg width="100%" height="100%" viewBox="0 0 167 167" version="1.1" xmlns="http://www.w3.org/2000/svg" xmlns:xlink="http://www.w3.org/1999/xlink" xml:space="preserve" xmlns:serif="http://www.serif.com/" style="fill-rule:evenodd;clip-rule:evenodd;stroke-linejoin:round;stroke-miterlimit:2;">
    <g transform="matrix(1,0,0,1,-54272.9,-18662.7)">
        <g transform="matrix(1,0,0,1,53335,16407.7)">
            <g transform="matrix(0.85567,0,0,0.85567,-35267.9,-30.3234)">
                <path d="M42410.4,2670.75C42464.2,2670.75 42507.9,2714.43 42507.9,2768.25C42507.9,2822.06 42464.2,2865.75 42410.4,2865.75C42356.6,2865.75 42312.9,2822.06 42312.9,2768.25C42312.9,2714.43 42356.6,2670.75 42410.4,2670.75ZM42351.9,2768.25C42351.9,2766.74 42352.5,2765.3 42353.5,2764.24C42354.6,2763.18 42356,2762.59 42357.5,2762.59L42404.7,2762.59L42404.7,2715.41C42404.7,2713.91 42405.3,2712.47 42406.4,2711.41C42407.4,2710.34 42408.9,2709.75 42410.4,2709.75L42410.4,2709.75C42411.9,2709.75 42413.3,2710.34 42414.4,2711.41C42415.4,2712.47 42416,2713.91 42416,2715.41L42416,2762.59L42463.2,2762.59C42464.7,2762.59 42466.2,2763.18 42467.2,2764.24C42468.3,2765.3 42468.9,2766.74 42468.9,2768.25L42468.9,2768.25C42468.9,2769.75 42468.3,2771.19 42467.2,2772.25C42466.2,2773.31 42464.7,2773.91 42463.2,2773.91C42449.6,2773.91 42416,2773.91 42416,2773.91L42416,2821.09C42416,2822.59 42415.4,2824.03 42414.4,2825.09C42413.3,2826.15 42411.9,2826.75 42410.4,2826.75C42410.4,2826.75 42410.4,2826.75 42410.4,2826.75C42408.9,2826.75 42407.4,2826.15 42406.4,2825.09C42405.3,2824.03 42404.7,2822.59 42404.7,2821.09L42404.7,2773.91L42357.5,2773.91C42356,2773.91 42354.6,2773.31 42353.5,2772.25C42352.5,2771.19 42351.9,2769.75 42351.9,2768.25L42351.9,2768.25Z" style="fill:white;"/>
            </g>
        </g>
    </g>
</svg>
