<?xml version="1.0" encoding="UTF-8" standalone="no"?>
<!DOCTYPE svg PUBLIC "-//W3C//DTD SVG 1.1//EN" "http://www.w3.org/Graphics/SVG/1.1/DTD/svg11.dtd">
<svg width="100%" height="100%" viewBox="0 0 533 393" version="1.1" xmlns="http://www.w3.org/2000/svg" xmlns:xlink="http://www.w3.org/1999/xlink" xml:space="preserve" xmlns:serif="http://www.serif.com/" style="fill-rule:evenodd;clip-rule:evenodd;stroke-linejoin:round;stroke-miterlimit:2;">
    <g transform="matrix(1,0,0,1,-53527.9,-9298.55)">
        <g transform="matrix(1,0,0,1,53231.7,7839.68)">
            <g transform="matrix(1.64956,0,0,1.64956,-83239.7,-27398.8)">
                <path d="M50676.9,17637.2C50666.9,17636.5 50658.7,17638.7 50652.1,17643.3C50649.1,17645.5 50644.9,17644.8 50642.7,17641.8C50640.6,17638.8 50641.3,17634.5 50644.3,17632.4C50653,17626.1 50663.9,17622.9 50677.2,17623.7C50680.3,17596.7 50696.8,17575.4 50702.7,17568.5L50702.7,17507.8C50702.7,17502.9 50705.4,17498.3 50709.7,17496C50714.1,17493.7 50719.4,17493.9 50723.5,17496.7C50723.5,17496.7 50782,17535.5 50782,17535.5C50796.4,17529.2 50810.7,17530 50825.1,17535.6L50881,17497.7C50885.1,17494.9 50890.4,17494.6 50894.7,17496.9C50899.1,17499.2 50901.8,17503.8 50901.8,17508.7C50901.8,17508.7 50901.8,17564 50901.8,17564C50908,17570.8 50924.2,17591.7 50926,17623.8C50940.3,17622.6 50951.7,17625.8 50960.9,17632.4C50963.9,17634.5 50964.6,17638.8 50962.5,17641.8C50960.3,17644.8 50956.1,17645.5 50953,17643.3C50946,17638.3 50937.1,17636.2 50926,17637.4C50925.9,17640.1 50925.6,17642.9 50925.3,17645.6C50935.3,17648.7 50943.5,17654 50950.3,17661.4C50952.8,17664.1 50952.6,17668.4 50949.9,17670.9C50947.1,17673.4 50942.9,17673.3 50940.3,17670.5C50935.6,17665.3 50929.8,17661.4 50922.8,17659C50919.3,17673.3 50912.6,17686.5 50901.9,17697.6C50883.9,17716.5 50854.1,17729.8 50807.4,17731.7C50729.7,17734.9 50692.9,17696.5 50681.1,17659.5C50674.7,17661.9 50669.3,17665.6 50664.8,17670.5C50662.3,17673.3 50658.1,17673.4 50655.3,17670.9C50652.6,17668.4 50652.4,17664.1 50654.9,17661.4C50661.2,17654.5 50668.8,17649.4 50677.9,17646.3C50677.4,17643.2 50677.1,17640.1 50676.9,17637.2ZM50886.8,17511.8L50830.2,17550.3C50828,17551.8 50825.2,17552.1 50822.8,17551C50810.2,17545.2 50797.6,17544 50785,17550.8C50782.6,17552.1 50779.6,17551.9 50777.3,17550.4L50717.7,17510.8L50717.7,17571.4C50717.7,17573.4 50716.9,17575.3 50715.6,17576.7C50715.6,17576.7 50690.4,17602.2 50691.8,17634.8C50693.3,17671.3 50724.1,17720.1 50806.8,17716.7C50848.3,17715 50875,17704 50891.1,17687.2C50906.7,17670.9 50911.8,17649.3 50911.1,17626.8C50910,17592.3 50889.2,17572.4 50889.2,17572.4C50887.7,17571 50886.8,17569 50886.8,17567L50886.8,17511.8ZM50775.8,17680.5C50773.9,17682.9 50770.3,17683.3 50767.9,17681.3C50765.5,17679.4 50765.1,17675.9 50767.1,17673.5C50767.1,17673.5 50775,17663.6 50786.5,17656.9C50798.9,17649.7 50815.1,17646.2 50830.3,17660.2C50832.5,17662.3 50832.7,17665.8 50830.6,17668.1C50828.5,17670.4 50825,17670.5 50822.7,17668.4C50812.1,17658.7 50800.8,17661.6 50792.1,17666.6C50782.5,17672.2 50775.8,17680.5 50775.8,17680.5ZM50759.7,17595.3C50769.6,17595.3 50777.6,17603.3 50777.6,17613.2C50777.6,17623.1 50769.6,17631.1 50759.7,17631.1C50749.8,17631.1 50741.8,17623.1 50741.8,17613.2C50741.8,17603.3 50749.8,17595.3 50759.7,17595.3ZM50844.4,17595.3C50854.3,17595.3 50862.3,17603.3 50862.3,17613.2C50862.3,17623.1 50854.3,17631.1 50844.4,17631.1C50834.5,17631.1 50826.5,17623.1 50826.5,17613.2C50826.5,17603.3 50834.5,17595.3 50844.4,17595.3Z" style="fill:white;stroke:rgb(193,193,193);stroke-width:0.61px;"/>
            </g>
        </g>
    </g>
</svg>
