<?xml version="1.0" encoding="UTF-8" standalone="no"?>
<!DOCTYPE svg PUBLIC "-//W3C//DTD SVG 1.1//EN" "http://www.w3.org/Graphics/SVG/1.1/DTD/svg11.dtd">
<svg width="100%" height="100%" viewBox="0 0 135 136" version="1.1" xmlns="http://www.w3.org/2000/svg" xmlns:xlink="http://www.w3.org/1999/xlink" xml:space="preserve" xmlns:serif="http://www.serif.com/" style="fill-rule:evenodd;clip-rule:evenodd;stroke-linejoin:round;stroke-miterlimit:2;">
    <g transform="matrix(1,0,0,1,-48791.3,-8745.68)">
        <g transform="matrix(1.41481,0,0,1.44265,12707.9,-17511.5)">
            <g transform="matrix(0.621527,0,0,0.609533,8955.2,7448.23)">
                <path d="M26705,17670.7C26706.1,17664.3 26701.4,17660.9 26700.4,17655.1C26699,17647.8 26706.6,17640.5 26717.1,17640.5C26731.8,17640.5 26736.6,17649.6 26735.5,17655.1C26734.2,17661 26730.1,17664.3 26730.5,17670.7L26767,17670.7C26774,17670.7 26779.7,17676.4 26779.7,17683.4L26779.7,17719.9C26774.2,17719.8 26770.9,17716.1 26765.5,17715C26759.9,17713.8 26750.9,17718.6 26750.9,17733.3C26750.9,17743.8 26758.1,17751.4 26765.5,17750.1C26770.9,17749.1 26774.2,17745 26779.7,17745.3L26779.7,17781.6C26779.7,17788.6 26774,17794.3 26767,17794.3L26730.5,17794.3C26730.6,17788.7 26734.3,17785.5 26735.5,17780C26736.6,17774.5 26731.8,17765.4 26717.1,17765.4C26706.6,17765.4 26699,17772.7 26700.4,17780C26701.4,17785.4 26705.5,17788.7 26705.1,17794.3L26668.9,17794.3C26661.8,17794.3 26656.2,17788.6 26656.2,17781.6L26656.2,17745.4C26649.9,17744.4 26646.5,17749 26640.7,17750.1C26633.4,17751.4 26626.2,17743.8 26626.2,17733.3C26626.2,17718.6 26635.2,17713.8 26640.7,17715C26646.6,17716.2 26649.9,17720.3 26656.2,17719.9L26656.2,17683.4C26656.2,17676.4 26661.8,17670.7 26668.9,17670.7L26705,17670.7Z" style="fill:white;"/>
            </g>
        </g>
    </g>
</svg>
