<?xml version="1.0" encoding="UTF-8" standalone="no"?>
<!DOCTYPE svg PUBLIC "-//W3C//DTD SVG 1.1//EN" "http://www.w3.org/Graphics/SVG/1.1/DTD/svg11.dtd">
<svg width="100%" height="100%" viewBox="0 0 195 195" version="1.1" xmlns="http://www.w3.org/2000/svg" xmlns:xlink="http://www.w3.org/1999/xlink" xml:space="preserve" xmlns:serif="http://www.serif.com/" style="fill-rule:evenodd;clip-rule:evenodd;stroke-linejoin:round;stroke-miterlimit:2;">
    <g transform="matrix(1,0,0,1,-48059.9,-20451.6)">
        <g transform="matrix(1,0,0,1,47210.8,19587.6)">
            <g transform="matrix(1.3,0,0,1.3,-298.745,-183.868)">
                <g transform="matrix(0.821417,0,0,0.821417,-20204.6,-14463.3)">
                    <circle cx="25763.5" cy="18680.3" r="91.306" style="fill:rgb(181,181,181);"/>
                </g>
                <g transform="matrix(0.853706,0,0,0.921232,-39585.5,-18080.7)">
                    <path d="M47458.3,20569.3L47458.3,20558.3C47458.3,20541.5 47473,20527.9 47491.1,20527.9C47509.2,20527.9 47523.8,20541.5 47523.8,20558.3L47523.8,20569.3C47526.7,20569.9 47529.3,20571.2 47531.4,20573.1C47534.3,20575.8 47535.9,20579.4 47535.9,20583.2L47535.9,20624C47535.9,20627.8 47534.3,20631.4 47531.4,20634.1C47528.6,20636.7 47524.7,20638.2 47520.6,20638.2L47461.6,20638.2C47457.5,20638.2 47453.6,20636.7 47450.8,20634.1C47447.9,20631.4 47446.3,20627.8 47446.3,20624L47446.3,20583.2C47446.3,20579.4 47447.9,20575.8 47450.8,20573.1C47452.9,20571.2 47455.5,20569.9 47458.3,20569.3ZM47483.4,20612.1L47481.9,20615.5C47481.4,20616.6 47481.6,20618 47482.4,20619C47483.1,20620 47484.4,20620.6 47485.7,20620.6L47496.5,20620.6C47497.8,20620.6 47499.1,20620 47499.8,20619C47500.6,20618 47500.7,20616.6 47500.2,20615.5C47499.8,20614.4 47499.3,20613.2 47498.8,20612.1L47498.8,20612.1C47498.2,20610.7 47498.6,20609.2 47499.7,20608.2C47501.8,20606.2 47503.1,20603.4 47503.1,20600.4C47503.1,20594.3 47497.7,20589.3 47491.1,20589.3C47484.5,20589.3 47479.1,20594.3 47479.1,20600.4C47479.1,20603.4 47480.4,20606.2 47482.5,20608.2C47483.6,20609.2 47483.9,20610.7 47483.4,20612.1ZM47505.5,20569L47505.5,20558.3C47505.5,20550.9 47499.1,20544.9 47491.1,20544.9C47483.1,20544.9 47476.7,20550.9 47476.7,20558.3L47476.7,20569L47505.5,20569Z" style="fill:white;"/>
                </g>
            </g>
        </g>
    </g>
</svg>
