<?xml version="1.0" encoding="UTF-8" standalone="no"?>
<!DOCTYPE svg PUBLIC "-//W3C//DTD SVG 1.1//EN" "http://www.w3.org/Graphics/SVG/1.1/DTD/svg11.dtd">
<svg width="100%" height="100%" viewBox="0 0 144 128" version="1.1" xmlns="http://www.w3.org/2000/svg" xmlns:xlink="http://www.w3.org/1999/xlink" xml:space="preserve" xmlns:serif="http://www.serif.com/" style="fill-rule:evenodd;clip-rule:evenodd;stroke-linejoin:round;stroke-miterlimit:2;">
    <g transform="matrix(1,0,0,1,-63989.2,-5811.74)">
        <g transform="matrix(1,0,0,1,63532.8,4017.35)">
            <g transform="matrix(0.555715,0,0,0.555715,-32872.6,-5895.84)">
                <path d="M59987.2,13965.5C59980.5,13965.5 59975.2,13960.1 59975.2,13953.5C59975.2,13946.8 59980.5,13941.5 59987.2,13941.5L60173.1,13941.5C60179.7,13941.5 60185.1,13946.8 60185.1,13953.5C60185.1,13960.1 60179.7,13965.5 60173.1,13965.5L59987.2,13965.5Z" style="fill:white;"/>
            </g>
        </g>
        <g transform="matrix(1,0,0,1,63532.8,4017.35)">
            <g transform="matrix(0.555715,0,0,0.555715,-32872.6,-5895.84)">
                <path d="M60105.4,13902.6C60105.4,13909.2 60100,13914.6 60093.4,13914.6C60086.8,13914.6 60081.4,13909.2 60081.4,13902.6L60081.4,13880.5C60081.4,13857.2 60100.2,13838.4 60123.4,13838.4L60191.8,13838.4C60203,13838.4 60213.7,13842.9 60221.5,13850.7C60229.4,13858.6 60233.9,13869.3 60233.9,13880.5L60233.9,14026.4C60233.9,14037.6 60229.4,14048.3 60221.5,14056.2C60213.7,14064.1 60203,14068.5 60191.8,14068.5L60123.4,14068.5C60100.2,14068.5 60081.4,14049.7 60081.4,14026.4L60081.4,14012.9C60081.4,14006.3 60086.8,14000.9 60093.4,14000.9C60100,14000.9 60105.4,14006.3 60105.4,14012.9L60105.4,14026.4C60105.4,14036.4 60113.5,14044.5 60123.4,14044.5L60191.8,14044.5C60196.6,14044.5 60201.2,14042.6 60204.6,14039.2C60208,14035.8 60209.9,14031.2 60209.9,14026.4L60209.9,13880.5C60209.9,13875.7 60208,13871.1 60204.6,13867.7C60201.2,13864.3 60196.6,13862.4 60191.8,13862.4L60123.4,13862.4C60113.5,13862.4 60105.4,13870.5 60105.4,13880.5L60105.4,13902.6Z" style="fill:white;"/>
            </g>
        </g>
        <g transform="matrix(1,0,0,1,63532.8,4017.35)">
            <g transform="matrix(0.555715,0,0,0.555715,-32872.6,-5895.84)">
                <path d="M60033,13890.7C60037.6,13886 60045.3,13886 60049.9,13890.7C60054.6,13895.4 60054.6,13903 60049.9,13907.6L60003.9,13953.7L60048,13997.8C60052.7,14002.4 60052.7,14010.1 60048,14014.7C60043.3,14019.4 60035.7,14019.4 60031,14014.7L59978.5,13962.2C59973.8,13957.5 59973.8,13949.9 59978.5,13945.2L60033,13890.7Z" style="fill:white;"/>
            </g>
        </g>
    </g>
</svg>
