<?xml version="1.0" encoding="UTF-8" standalone="no"?>
<!DOCTYPE svg PUBLIC "-//W3C//DTD SVG 1.1//EN" "http://www.w3.org/Graphics/SVG/1.1/DTD/svg11.dtd">
<svg width="100%" height="100%" viewBox="0 0 78 78" version="1.1" xmlns="http://www.w3.org/2000/svg" xmlns:xlink="http://www.w3.org/1999/xlink" xml:space="preserve" xmlns:serif="http://www.serif.com/" style="fill-rule:evenodd;clip-rule:evenodd;stroke-linejoin:round;stroke-miterlimit:2;">
    <g transform="matrix(1,0,0,1,-38773.9,-6612.4)">
        <g transform="matrix(1,0,0,1,38559.6,4491.81)">
            <g transform="matrix(0.184358,0,0,0.184358,-9828.76,226.07)">
                <path d="M54895.6,10301.3L54895.6,10671.1C54895.6,10677.7 54893,10684.1 54888.3,10688.7C54883.6,10693.4 54877.3,10696 54870.7,10696L54500.7,10696C54494.1,10696 54487.7,10693.4 54483.1,10688.7C54478.4,10684.1 54475.8,10677.7 54475.8,10671.1L54475.8,10301.3C54475.8,10294.7 54478.4,10288.3 54483.1,10283.6C54487.7,10279 54494.1,10276.3 54500.7,10276.3L54870.7,10276.3C54877.3,10276.3 54883.6,10279 54888.3,10283.6C54893,10288.3 54895.6,10294.7 54895.6,10301.3ZM54877.3,10503.9C54877.3,10503.9 54877.3,10370 54877.3,10315.9C54877.3,10310 54875,10304.3 54870.8,10300.1C54866.6,10295.9 54860.9,10293.6 54855,10293.6C54787.1,10293.6 54583.3,10293.6 54515.3,10293.6C54509.4,10293.6 54503.8,10295.9 54499.6,10300.1C54495.4,10304.3 54493,10310 54493,10315.9L54493,10485.4C54536.7,10463.4 54596.5,10452.8 54643,10473C54675.1,10486.9 54703.6,10515.1 54738.6,10521.4C54768.9,10526.9 54799.8,10529.3 54829.8,10521.6C54846.2,10517.5 54861.6,10510.1 54877.3,10503.9ZM54791.8,10316.8C54824.2,10316.8 54850.5,10343.1 54850.5,10375.6C54850.5,10408 54824.2,10434.3 54791.8,10434.3C54759.4,10434.3 54733,10408 54733,10375.6C54733,10343.1 54759.4,10316.8 54791.8,10316.8Z" style="fill:rgb(193,193,193);"/>
            </g>
        </g>
    </g>
</svg>
