<?xml version="1.0" encoding="UTF-8" standalone="no"?>
<!DOCTYPE svg PUBLIC "-//W3C//DTD SVG 1.1//EN" "http://www.w3.org/Graphics/SVG/1.1/DTD/svg11.dtd">
<svg width="100%" height="100%" viewBox="0 0 135 135" version="1.1" xmlns="http://www.w3.org/2000/svg" xmlns:xlink="http://www.w3.org/1999/xlink" xml:space="preserve" xmlns:serif="http://www.serif.com/" style="fill-rule:evenodd;clip-rule:evenodd;stroke-linejoin:round;stroke-miterlimit:2;">
    <g transform="matrix(1,0,0,1,-52630.8,-8129.5)">
        <g transform="matrix(1,0,0,1,51762.3,7839.68)">
            <g transform="matrix(0.681818,0,0,0.681818,-16615.4,-11612.5)">
                <path d="M25742.1,17456.7C25687.4,17456.7 25643.1,17501.1 25643.1,17555.7C25643.1,17610.4 25687.4,17654.7 25742.1,17654.7C25796.7,17654.7 25841.1,17610.4 25841.1,17555.7C25841.1,17501.1 25796.7,17456.7 25742.1,17456.7ZM25742.1,17474.7C25786.8,17474.7 25823.1,17511 25823.1,17555.7C25823.1,17600.4 25786.8,17636.7 25742.1,17636.7C25697.4,17636.7 25661.1,17600.4 25661.1,17555.7C25661.1,17511 25697.4,17474.7 25742.1,17474.7ZM25741.9,17591.9C25746.9,17591.9 25750.9,17596 25750.9,17600.9C25750.9,17605.9 25746.9,17609.9 25741.9,17609.9C25736.9,17609.9 25732.9,17605.9 25732.9,17600.9C25732.9,17596 25736.9,17591.9 25741.9,17591.9ZM25726.5,17531.1C25726.5,17531.1 25724.9,17513.3 25741.7,17513.3C25746.5,17513.3 25750,17514.3 25752.4,17516.1C25755,17518.1 25756.2,17521 25756.8,17523.7C25757.7,17527.2 25757.7,17530.7 25757.7,17533.2C25757.7,17539.7 25753.8,17543.3 25749.9,17545.4C25745.5,17547.7 25741.1,17548.2 25741.1,17548.2C25738,17548.5 25735.7,17551.1 25735.7,17554.2L25735.7,17576.1C25735.7,17579.4 25738.4,17582.1 25741.7,17582.1C25745,17582.1 25747.7,17579.4 25747.7,17576.1L25747.7,17559C25750,17558.4 25752.8,17557.4 25755.5,17556C25762.7,17552.2 25769.7,17545.3 25769.7,17533.2C25769.7,17526.3 25768.9,17513.7 25759.6,17506.6C25755.6,17503.5 25749.9,17501.3 25741.7,17501.3C25712.2,17501.3 25714.5,17532 25714.5,17532C25714.8,17535.3 25717.7,17537.8 25721,17537.5C25724.3,17537.3 25726.8,17534.4 25726.5,17531.1Z" style="fill:white;"/>
            </g>
        </g>
    </g>
</svg>
